<svg aria-hidden="true" style="position: absolute; width: 0; height: 0; overflow: hidden;" version="1.1" xmlns="http://www.w3.org/2000/svg" xmlns:xlink="http://www.w3.org/1999/xlink">
<defs>
<symbol id="icon-arrow_right" viewBox="0 0 15 15">
<path stroke-linejoin="round" stroke-linecap="round" stroke-miterlimit="4" stroke-width="1.25" d="M3.125 7.5h8.75"></path>
<path stroke-linejoin="round" stroke-linecap="round" stroke-miterlimit="4" stroke-width="1.25" d="M7.5 11.875l4.375-4.375-4.375-4.375"></path>
</symbol>

<symbol id="icon-arrow-left" viewBox="0 0 15 15">
<path stroke-linejoin="round" stroke-linecap="round" stroke-miterlimit="4" stroke-width="1.25" d="M3.125 7.5h8.75"></path>
<path stroke-linejoin="round" stroke-linecap="round" stroke-miterlimit="4" stroke-width="1.25" d="M7.5 11.875l4.375-4.375-4.375-4.375"></path>
</symbol>

<symbol id="icon-cinema" viewBox="0 0 15 15">
<path fill="none" stroke="#818181" style="stroke: var(--color1, #818181)" stroke-linejoin="round" stroke-linecap="round" stroke-miterlimit="4" stroke-width="1.25" d="M12.387 1.25h-9.775c-0.752 0-1.362 0.61-1.362 1.362v9.775c0 0.753 0.61 1.362 1.362 1.362h9.775c0.753 0 1.362-0.61 1.362-1.362v-9.775c0-0.752-0.61-1.362-1.362-1.362z"></path>
<path fill="none" stroke="#818181" style="stroke: var(--color1, #818181)" stroke-linejoin="round" stroke-linecap="round" stroke-miterlimit="4" stroke-width="1.25" d="M4.375 1.25v12.5"></path>
<path fill="none" stroke="#818181" style="stroke: var(--color1, #818181)" stroke-linejoin="round" stroke-linecap="round" stroke-miterlimit="4" stroke-width="1.25" d="M10.625 1.25v12.5"></path>
<path fill="none" stroke="#818181" style="stroke: var(--color1, #818181)" stroke-linejoin="round" stroke-linecap="round" stroke-miterlimit="4" stroke-width="1.25" d="M1.25 7.5h12.5"></path>
<path fill="none" stroke="#818181" style="stroke: var(--color1, #818181)" stroke-linejoin="round" stroke-linecap="round" stroke-miterlimit="4" stroke-width="1.25" d="M1.25 4.375h3.125"></path>
<path fill="none" stroke="#818181" style="stroke: var(--color1, #818181)" stroke-linejoin="round" stroke-linecap="round" stroke-miterlimit="4" stroke-width="1.25" d="M1.25 10.625h3.125"></path>
<path fill="none" stroke="#818181" style="stroke: var(--color1, #818181)" stroke-linejoin="round" stroke-linecap="round" stroke-miterlimit="4" stroke-width="1.25" d="M10.625 10.625h3.125"></path>
<path fill="none" stroke="#818181" style="stroke: var(--color1, #818181)" stroke-linejoin="round" stroke-linecap="round" stroke-miterlimit="4" stroke-width="1.25" d="M10.625 4.375h3.125"></path>
</symbol>

<symbol id="icon-heart" viewBox="0 0 15 15">
<path stroke-linejoin="round" stroke-linecap="round" stroke-miterlimit="4" stroke-width="1.25" d="M3.125 7.5h8.75"></path>
<path stroke-linejoin="round" stroke-linecap="round" stroke-miterlimit="4" stroke-width="1.25" d="M7.5 11.875l4.375-4.375-4.375-4.375"></path>
</symbol>

<symbol id="icon-search" viewBox="0 0 15 15">
<path fill="none" stroke="#fff" style="stroke: var(--color2, #fff)" stroke-linejoin="round" stroke-linecap="round" stroke-miterlimit="4" stroke-width="1.25" d="M6.875 11.875c2.761 0 5-2.239 5-5s-2.239-5-5-5c-2.761 0-5 2.239-5 5s2.239 5 5 5z"></path>
<path fill="none" stroke="#fff" style="stroke: var(--color2, #fff)" stroke-linejoin="round" stroke-linecap="round" stroke-miterlimit="4" stroke-width="1.25" d="M13.125 13.125l-2.719-2.719"></path>
</symbol>
</defs>
</svg>
